<?xml version="1.0" encoding="UTF-8" standalone="no"?>
<!-- Created with Inkscape (http://www.inkscape.org/) -->

<svg
   xmlns:dc="http://purl.org/dc/elements/1.1/"
   xmlns:cc="http://creativecommons.org/ns#"
   xmlns:rdf="http://www.w3.org/1999/02/22-rdf-syntax-ns#"
   xmlns:svg="http://www.w3.org/2000/svg"
   xmlns="http://www.w3.org/2000/svg"
   xmlns:sodipodi="http://sodipodi.sourceforge.net/DTD/sodipodi-0.dtd"
   xmlns:inkscape="http://www.inkscape.org/namespaces/inkscape"
   width="210mm"
   height="297mm"
   viewBox="0 0 210 297"
   version="1.1"
   id="svg8"
   inkscape:version="0.92.4 5da689c313, 2019-01-14"
   sodipodi:docname="desenhando2.svg"
   inkscape:export-filename="/home/aluno-uffs/logo.png"
   inkscape:export-xdpi="96"
   inkscape:export-ydpi="96">
  <defs
     id="defs2">
    <inkscape:perspective
       sodipodi:type="inkscape:persp3d"
       inkscape:vp_x="48.022205 : 76.871764 : 1"
       inkscape:vp_y="0 : 1000 : 0"
       inkscape:vp_z="237.1702 : 38.384951 : 1"
       inkscape:persp3d-origin="97.160384 : 16.680983 : 1"
       id="perspective3792" />
  </defs>
  <sodipodi:namedview
     id="base"
     pagecolor="#ffffff"
     bordercolor="#666666"
     borderopacity="1.0"
     inkscape:pageopacity="0.0"
     inkscape:pageshadow="2"
     inkscape:zoom="0.7"
     inkscape:cx="575.24453"
     inkscape:cy="497.30064"
     inkscape:document-units="mm"
     inkscape:current-layer="layer1"
     showgrid="false"
     inkscape:window-width="1916"
     inkscape:window-height="1161"
     inkscape:window-x="0"
     inkscape:window-y="18"
     inkscape:window-maximized="0"
     inkscape:snap-grids="false"
     inkscape:snap-page="false"
     inkscape:snap-to-guides="false" />
  <metadata
     id="metadata5">
    <rdf:RDF>
      <cc:Work
         rdf:about="">
        <dc:format>image/svg+xml</dc:format>
        <dc:type
           rdf:resource="http://purl.org/dc/dcmitype/StillImage" />
        <dc:title />
      </cc:Work>
    </rdf:RDF>
  </metadata>
  <g
     inkscape:label="Camada 1"
     inkscape:groupmode="layer"
     id="layer1">
    <path
       style="fill:#008000;stroke:#ffffff;stroke-width:0.99757427px;stroke-linecap:butt;stroke-linejoin:miter;stroke-opacity:1"
       d="m 127.31554,5.8901641 c 0,0 54.24579,21.3453569 46.47303,89.8813969 -10.61041,93.557649 -52.27223,150.361829 -52.27223,150.361829 0,0 78.68006,-95.81277 82.15809,-161.01429 C 203.22964,56.19448 177.47749,8.9842203 127.31554,5.8901641 Z"
       id="path3754"
       inkscape:connector-curvature="0"
       sodipodi:nodetypes="csccc" />
    <path
       style="fill:#008000;stroke:#ffffff;stroke-width:1.07332063px;stroke-linecap:butt;stroke-linejoin:miter;stroke-opacity:1"
       d="m 91.80847,6.2292871 c 0,0 -72.775724,38.2818389 -44.095242,127.4538129 26.808337,83.35118 50.739741,115.27762 50.739741,115.27762 0,0 -86.811242,-99.32366 -90.7962557,-165.200496 C 8.1663183,54.536 34.334894,9.3553897 91.80847,6.2292871 Z"
       id="path3754-3"
       inkscape:connector-curvature="0"
       sodipodi:nodetypes="csccc" />
    <path
       style="fill:#008000;stroke:#ffffff;stroke-width:1.08051026px;stroke-linecap:butt;stroke-linejoin:miter;stroke-opacity:1"
       d="m 109.43155,5.713336 c 0,0 25.11534,34.984409 23.87678,85.728022 -2.32815,95.388782 -22.60458,154.435572 -22.60458,154.435572 0,0 -22.986284,-89.93513 -27.068038,-155.115056 C 84.157699,61.846835 95.421338,23.752415 109.43155,5.713336 Z"
       id="path3754-3-6"
       inkscape:connector-curvature="0"
       sodipodi:nodetypes="csccc" />
    <g
       sodipodi:type="inkscape:box3d"
       id="g3791"
       style="fill:#008000;stroke:none;fill-opacity:1;opacity:1;"
       inkscape:perspectiveID="#perspective3792"
       inkscape:corner0="-0.12697366 : 0.024278391 : 0 : 1"
       inkscape:corner7="-0.027569668 : 0.01253167 : 0.11327812 : 1">
      <path
         sodipodi:type="inkscape:box3dside"
         id="path3793"
         style="fill:#008000;fill-rule:evenodd;stroke:none;stroke-width:1.05811679;stroke-linejoin:round;fill-opacity:1"
         inkscape:box3dsidetype="6"
         d="m 104.30708,261.26375 v 13.45518 l 15.25947,-1.84955 v -11.90983 z"
         points="104.30708,274.71893 119.56655,272.86938 119.56655,260.95955 104.30708,261.26375 " />
      <path
         sodipodi:type="inkscape:box3dside"
         id="path3801"
         style="fill:#008000;fill-rule:evenodd;stroke:none;stroke-width:1.05811679;stroke-linejoin:round;fill-opacity:1"
         inkscape:box3dsidetype="13"
         d="m 104.30708,274.71893 -5.753562,-5.58038 14.462662,-1.09798 6.55037,4.82881 z"
         points="98.553518,269.13855 113.01618,268.04057 119.56655,272.86938 104.30708,274.71893 " />
      <path
         sodipodi:type="inkscape:box3dside"
         id="path3799"
         style="fill:#008000;fill-rule:evenodd;stroke:none;stroke-width:1.05811679;stroke-linejoin:round;fill-opacity:1"
         inkscape:box3dsidetype="14"
         d="m 98.553518,257.05879 v 12.07976 l 14.462662,-1.09798 v -10.81941 z"
         points="98.553518,269.13855 113.01618,268.04057 113.01618,257.22116 98.553518,257.05879 " />
      <path
         sodipodi:type="inkscape:box3dside"
         id="path3803"
         style="fill:#008000;fill-rule:evenodd;stroke:none;stroke-width:1.05811679;stroke-linejoin:round;fill-opacity:1"
         inkscape:box3dsidetype="11"
         d="m 119.56655,260.95955 -6.55037,-3.73839 v 10.81941 l 6.55037,4.82881 z"
         points="113.01618,257.22116 113.01618,268.04057 119.56655,272.86938 119.56655,260.95955 " />
      <path
         sodipodi:type="inkscape:box3dside"
         id="path3795"
         style="fill:#008000;fill-rule:evenodd;stroke:none;stroke-width:1.05811679;stroke-linejoin:round;fill-opacity:1"
         inkscape:box3dsidetype="5"
         d="m 104.30708,261.26375 -5.753562,-4.20496 14.462662,0.16237 6.55037,3.73839 z"
         points="98.553518,257.05879 113.01618,257.22116 119.56655,260.95955 104.30708,261.26375 " />
      <path
         sodipodi:type="inkscape:box3dside"
         id="path3797"
         style="fill:#008000;fill-rule:evenodd;stroke:none;stroke-width:1.05811679;stroke-linejoin:round;fill-opacity:1"
         inkscape:box3dsidetype="3"
         d="m 104.30708,261.26375 -5.753562,-4.20496 v 12.07976 l 5.753562,5.58038 z"
         points="98.553518,257.05879 98.553518,269.13855 104.30708,274.71893 104.30708,261.26375 " />
    </g>
  </g>
</svg>
